<svg width="3840" height="2160" viewBox="0 0 3840 2160" fill="none" xmlns="http://www.w3.org/2000/svg">
<path d="M1066.62 813.484C1053.28 791.755 1032.37 776.77 1007.91 770.926C1000.65 769.278 993.384 768.379 986.12 768.379C968.627 768.379 951.579 773.324 936.458 782.764C892.281 810.636 878.642 869.527 906.068 914.332C919.41 936.06 940.313 951.045 964.773 956.889C989.382 962.734 1014.73 958.388 1036.08 945.051C1080.4 917.179 1094.04 858.139 1066.62 813.484Z" fill="black"/>
<path d="M512 783.751H677.799L887.519 1224.05L804.07 1395.34L512 783.751Z" fill="black"/>
<path d="M1404.77 1193.29L1489.44 951.811H1442.37L1382.42 1130.98L1321.12 951.811H1274.04L1359.73 1193.29H1404.77Z" fill="black"/>
<path d="M1585.52 1198.37C1644.12 1198.37 1683.74 1163.15 1683.74 1099.82V1094.74C1683.74 1030.39 1643.1 993.808 1585.52 993.808C1528.96 993.808 1487.3 1029.37 1487.3 1094.74V1099.82C1487.3 1163.15 1522.87 1198.37 1585.52 1198.37ZM1585.52 1159.42C1552.67 1159.42 1532.69 1137.41 1532.69 1099.14V1094.74C1532.69 1053.76 1554.36 1031.74 1585.86 1031.74C1617.7 1031.74 1638.7 1055.11 1638.7 1094.74V1099.14C1638.7 1137.75 1618.71 1159.42 1585.52 1159.42Z" fill="black"/>
<path d="M1766.14 1193.29V932.506H1721.77V1193.29H1766.14Z" fill="black"/>
<path d="M1927.85 1151.97H1913.97C1881.45 1151.97 1876.37 1146.55 1876.37 1107.94V1037.84H1927.85V998.549H1876.37V946.053H1838.44C1838.44 951.811 1838.1 963.326 1837.76 971.793C1836.41 995.501 1832.68 1000.24 1814.39 1000.24H1797.12V1037.84H1835.05V1115.4C1835.05 1174.33 1847.92 1193.29 1902.79 1193.29H1927.85V1151.97Z" fill="black"/>
<path d="M2256.44 1102.53H2209.02C2205.63 1136.74 2189.72 1156.04 2153.81 1156.04C2114.53 1156.04 2093.53 1129.29 2093.53 1082.21V1065.61C2093.53 1014.13 2114.19 987.377 2153.48 987.377C2188.36 987.377 2205.3 1005.67 2208.68 1038.52H2255.08C2248.65 978.233 2213.42 947.412 2153.48 947.412C2087.09 947.412 2048.15 988.732 2048.15 1062.9V1084.58C2048.15 1158.41 2085.4 1198.38 2151.78 1198.38C2220.54 1198.38 2250.34 1162.48 2256.44 1102.53Z" fill="black"/>
<path d="M2381.17 1159.09C2351.7 1159.09 2330.71 1138.09 2330.71 1096.43V1092.71C2330.71 1054.1 2349.33 1031.07 2382.86 1031.07C2414.7 1031.07 2434.68 1055.45 2434.68 1093.05V1096.43C2434.68 1134.71 2414.02 1159.09 2381.17 1159.09ZM2435.02 1193.3H2476.68V998.554H2433.67V1032.08C2422.49 1008.38 2400.81 994.151 2368.98 994.151C2319.53 994.151 2284.98 1028.02 2284.98 1092.03V1096.77C2284.98 1162.14 2317.84 1197.36 2367.62 1197.36C2402.17 1197.36 2424.52 1179.07 2435.02 1152.66V1193.3Z" fill="black"/>
<path d="M2616.25 1159.77C2584.08 1159.77 2564.1 1135.72 2564.1 1098.13V1094.74C2564.1 1056.47 2585.1 1031.74 2617.27 1031.74C2647.41 1031.74 2668.75 1053.76 2668.75 1095.42V1099.48C2668.75 1138.09 2649.11 1159.77 2616.25 1159.77ZM2630.14 1197.36C2678.91 1197.36 2713.8 1164.17 2713.8 1100.16V1095.42C2713.8 1030.05 2681.28 993.812 2630.82 993.812C2596.95 993.812 2574.26 1011.76 2563.76 1038.18L2559.02 998.554H2522.1V1260.36H2565.11V1159.09C2576.29 1182.8 2597.97 1197.36 2630.14 1197.36Z" fill="black"/>
<path d="M2774.75 977.555C2794.39 977.555 2804.21 969.088 2804.21 948.09C2804.21 926.414 2794.05 918.963 2774.75 918.963C2755.44 918.963 2745.28 926.414 2745.28 948.09C2745.28 970.104 2753.41 977.555 2774.75 977.555ZM2796.76 1193.3V998.554H2751.72V1193.3H2796.76Z" fill="black"/>
<path d="M2959.45 1151.98H2945.56C2913.05 1151.98 2907.97 1146.56 2907.97 1107.95V1037.84H2959.45V998.554H2907.97V946.058H2870.04C2870.04 951.815 2869.7 963.331 2869.36 971.798C2868 995.506 2864.28 1000.25 2845.99 1000.25H2828.72V1037.84H2866.65V1115.4C2866.65 1174.33 2879.52 1193.3 2934.39 1193.3H2959.45V1151.98Z" fill="black"/>
<path d="M3076.72 1159.09C3047.25 1159.09 3026.25 1138.09 3026.25 1096.43V1092.71C3026.25 1054.1 3044.88 1031.07 3078.41 1031.07C3110.25 1031.07 3130.23 1055.45 3130.23 1093.05V1096.43C3130.23 1134.71 3109.57 1159.09 3076.72 1159.09ZM3130.57 1193.3H3172.23V998.554H3129.21V1032.08C3118.04 1008.38 3096.36 994.151 3064.53 994.151C3015.08 994.151 2980.53 1028.02 2980.53 1092.03V1096.77C2980.53 1162.14 3013.38 1197.36 3063.17 1197.36C3097.72 1197.36 3120.07 1179.07 3130.57 1152.66V1193.3Z" fill="black"/>
<path d="M3264 1193.3V932.51H3219.63V1193.3H3264Z" fill="black"/>
</svg>
