<svg width="255" height="59" viewBox="0 0 255 59" fill="none" xmlns="http://www.w3.org/2000/svg">
<path d="M51.3537 4.32263C50.1185 2.31068 48.1824 0.923184 45.9176 0.382073C45.2454 0.229481 44.5726 0.14624 43.9 0.14624C42.2803 0.14624 40.7018 0.604106 39.3017 1.47818C35.2112 4.05892 33.9484 9.51179 36.4878 13.6604C37.7232 15.6723 39.6585 17.0598 41.9234 17.6009C44.2021 18.1421 46.5491 17.7397 48.5259 16.5048C52.6296 13.924 53.8926 8.45735 51.3537 4.32263Z" fill="white"/>
<path d="M0 1.56958H15.3518L34.7703 42.338L27.0435 58.1982L0 1.56958Z" fill="white"/>
<path d="M82.6639 39.4898L90.5037 17.1306H86.1454L80.5944 33.7203L74.9185 17.1306H70.5593L78.4935 39.4898H82.6639Z" fill="white"/>
<path d="M99.4 39.9602C104.826 39.9602 108.494 36.6991 108.494 30.8352V30.3648C108.494 24.4065 104.731 21.0193 99.4 21.0193C94.1629 21.0193 90.3055 24.3121 90.3055 30.3648V30.8352C90.3055 36.6991 93.5991 39.9602 99.4 39.9602ZM99.4 36.3537C96.3583 36.3537 94.5083 34.3158 94.5083 30.7723V30.3648C94.5083 26.5704 96.5148 24.5315 99.4315 24.5315C102.38 24.5315 104.324 26.6954 104.324 30.3648V30.7723C104.324 34.3473 102.473 36.3537 99.4 36.3537Z" fill="white"/>
<path d="M116.124 39.4898V15.3431H112.016V39.4898H116.124Z" fill="white"/>
<path d="M131.097 35.6639H129.811C126.801 35.6639 126.331 35.1621 126.331 31.5871V25.0963H131.097V21.4583H126.331V16.5975H122.819C122.819 17.1307 122.787 18.1969 122.756 18.9809C122.631 21.1761 122.285 21.6149 120.592 21.6149H118.993V25.0963H122.505V32.2778C122.505 37.7343 123.696 39.4899 128.777 39.4899H131.097V35.6639Z" fill="white"/>
<path d="M161.522 31.0862H157.131C156.818 34.2538 155.344 36.0408 152.02 36.0408C148.382 36.0408 146.438 33.5639 146.438 29.2047V27.6676C146.438 22.901 148.351 20.4239 151.989 20.4239C155.218 20.4239 156.787 22.1177 157.1 25.1593H161.396C160.801 19.5772 157.539 16.7234 151.989 16.7234C145.842 16.7234 142.236 20.5493 142.236 27.4167V29.4241C142.236 36.2602 145.685 39.9612 151.831 39.9612C158.198 39.9612 160.957 36.6371 161.522 31.0862Z" fill="white"/>
<path d="M173.071 36.3232C170.343 36.3232 168.399 34.3787 168.399 30.5213V30.1769C168.399 26.6019 170.123 24.4694 173.228 24.4694C176.176 24.4694 178.026 26.7269 178.026 30.2083V30.5213C178.026 34.0658 176.113 36.3232 173.071 36.3232ZM178.057 39.4908H181.915V21.4587H177.932V24.563C176.897 22.3685 174.89 21.051 171.943 21.051C167.364 21.051 164.165 24.187 164.165 30.1139V30.5528C164.165 36.6056 167.207 39.8667 171.817 39.8667C175.016 39.8667 177.085 38.1732 178.057 35.7278V39.4908Z" fill="white"/>
<path d="M194.839 36.3861C191.859 36.3861 190.009 34.1593 190.009 30.6787V30.3648C190.009 26.8213 191.954 24.5315 194.932 24.5315C197.723 24.5315 199.699 26.5704 199.699 30.4278V30.8037C199.699 34.3787 197.881 36.3861 194.839 36.3861ZM196.124 39.8667C200.64 39.8667 203.87 36.7935 203.87 30.8667V30.4278C203.87 24.375 200.859 21.0197 196.187 21.0197C193.051 21.0197 190.95 22.6815 189.978 25.1278L189.539 21.4587H186.12V45.7H190.103V36.3232C191.138 38.5185 193.145 39.8667 196.124 39.8667Z" fill="white"/>
<path d="M209.514 19.5143C211.332 19.5143 212.242 18.7303 212.242 16.7861C212.242 14.779 211.301 14.0891 209.514 14.0891C207.726 14.0891 206.785 14.779 206.785 16.7861C206.785 18.8244 207.538 19.5143 209.514 19.5143ZM211.552 39.4907V21.4586H207.381V39.4907H211.552Z" fill="white"/>
<path d="M226.616 35.6648H225.33C222.319 35.6648 221.849 35.1629 221.849 31.5879V25.0962H226.616V21.4586H221.849V16.5979H218.337C218.337 17.131 218.306 18.1973 218.274 18.9812C218.148 21.1764 217.804 21.6157 216.11 21.6157H214.511V25.0962H218.023V32.2777C218.023 37.7342 219.215 39.4907 224.295 39.4907H226.616V35.6648Z" fill="white"/>
<path d="M237.474 36.3232C234.745 36.3232 232.801 34.3787 232.801 30.5213V30.1769C232.801 26.6019 234.526 24.4694 237.631 24.4694C240.579 24.4694 242.429 26.7269 242.429 30.2083V30.5213C242.429 34.0658 240.516 36.3232 237.474 36.3232ZM242.46 39.4908H246.318V21.4587H242.334V24.563C241.3 22.3685 239.293 21.051 236.345 21.051C231.767 21.051 228.568 24.187 228.568 30.1139V30.5528C228.568 36.6056 231.609 39.8667 236.219 39.8667C239.418 39.8667 241.488 38.1732 242.46 35.7278V39.4908Z" fill="white"/>
<path d="M254.815 39.4907V15.3435H250.706V39.4907H254.815Z" fill="white"/>
</svg>
