<svg width="380" height="200" viewBox="0 0 380 200" fill="none" xmlns="http://www.w3.org/2000/svg">
<path d="M153.293 63.0181C151.484 60.0727 148.651 58.0414 145.335 57.2492C144.35 57.0257 143.366 56.9038 142.381 56.9038C140.01 56.9038 137.699 57.5742 135.649 58.854C129.661 62.6321 127.812 70.6151 131.529 76.6886C133.338 79.6342 136.171 81.6655 139.487 82.4575C142.823 83.2497 146.259 82.6607 149.153 80.8529C155.162 77.0747 157.011 69.0714 153.293 63.0181Z" fill="#FFFFFF"/>
<path d="M78.1111 58.9878H100.586L129.015 118.673L117.703 141.893L78.1111 58.9878Z" fill="#FFFFFF"/>
<path d="M203.454 119.725L217.907 78.5054H209.872L199.639 109.088L189.175 78.5054H181.139L195.766 119.725H203.454Z" fill="#FFFFFF"/>
<path d="M234.307 120.592C244.309 120.592 251.072 114.58 251.072 103.769V102.902C251.072 91.9176 244.135 85.6741 234.307 85.6741C224.654 85.6741 217.543 91.7443 217.543 102.902V103.769C217.543 114.58 223.613 120.592 234.307 120.592ZM234.307 113.944C228.7 113.944 225.289 110.186 225.289 103.653V102.902C225.289 95.9067 228.989 92.1489 234.365 92.1489C239.8 92.1489 243.383 96.138 243.383 102.902V103.653C243.383 110.244 239.972 113.944 234.307 113.944Z" fill="#FFFFFF"/>
<path d="M265.139 119.725V75.21H257.565V119.725H265.139Z" fill="#FFFFFF"/>
<path d="M292.741 112.672H290.37C284.82 112.672 283.954 111.747 283.954 105.156V93.1893H292.741V86.4832H283.954V77.5225H277.478C277.478 78.5052 277.42 80.4708 277.363 81.9162C277.131 85.963 276.496 86.7723 273.374 86.7723H270.426V93.1893H276.9V106.428C276.9 116.487 279.098 119.725 288.463 119.725H292.741V112.672Z" fill="#FFFFFF"/>
</svg>
